<!-- <?xml version="1.0" encoding="UTF-8"?> -->
<!-- <!DOCTYPE svg PUBLIC "-//W3C//DTD SVG 1.1//EN" "http://www.w3.org/Graphics/SVG/1.1/DTD/svg11.dtd"> -->
<svg class='logo2' xmlns="http://www.w3.org/2000/svg" xml:space="preserve" width="180px" height="180px" 
viewBox="0 0 500 500"
 xmlns:xlink="http://www.w3.org/1999/xlink">
 <defs>
                <linearGradient id="lgrad" x1="0%" y1="50%" x2="100%" y2="50%" >
                    <stop offset="0%" style="stop-color:rgb(0,178,190);stop-opacity:1.00" />
                    <stop offset="20%" style="stop-color:rgb(0,188,212);stop-opacity:1.00" />
                    <stop offset="32%" style="stop-color:rgb(0,184,164);stop-opacity:1.00" />
                    <stop offset="68%" style="stop-color:rgb(21,188,129);stop-opacity:1.00" />
                    <stop offset="100%" style="stop-color:rgb(97,188,89);stop-opacity:1.00" />
                </linearGradient>
            </defs>
 <g id="full-logo"> 
    <g id='logo-m'>
        <path id="_609821704" d="M2.97969 0.718315c-0.00125271,0.110146 -0.0915504,0.198421 -0.201686,0.197168 -0.110146,-0.00125271 -0.198411,-0.0915504 -0.197158,-0.201686 0.00124244,-0.110156 0.0915401,-0.198421 0.201686,-0.197168 0.110136,0.00125271 0.198411,0.0915504 0.197158,0.201686zm-0.800809 -0.516619c0.00125271,-0.110136 -0.0870222,-0.200433 -0.197158,-0.201686 -0.110136,-0.00125271 -0.200433,0.0870119 -0.201707,0.197158 -0.000287507,0.026543 0.00471306,0.0518847 0.0138619,0.0751522l-9.24129e-005 4.10724e-005c0.00378893,0.0119007 0.00691043,0.0241711 0.0083685,0.0368933 0.0116338,0.101521 -0.0529115,0.188851 -0.143363,0.214686 2.05362e-005,4.10724e-005 4.10724e-005,7.18767e-005 6.16086e-005,0.000112949 -0.083223,0.0232162 -0.14477,0.0989845 -0.145797,0.189744 -0.00123217,0.110136 0.0870324,0.200433 0.197178,0.201686 0.110136,0.00125271 0.200433,-0.0870222 0.201686,-0.197168 0.000266971,-0.0238117 -0.00386081,-0.0465967 -0.0112846,-0.0678722 8.21448e-005,-4.10724e-005 0.000143753,-8.21448e-005 0.000205362,-0.000123217 -0.00500057,-0.0139338 -0.00861494,-0.0283708 -0.01034,-0.0434751 -0.0116748,-0.102034 0.0535892,-0.190566 0.144749,-0.215887l-1.02681e-005 -6.16086e-005c0.0821448,-0.0239041 0.142634,-0.099231 0.14364,-0.1892zm0.533849 0c0.00125271,-0.110136 -0.0870119,-0.200433 -0.197158,-0.201686 -0.110156,-0.00125271 -0.200433,0.0870119 -0.201686,0.197158 -0.000308043,0.026543 0.00469252,0.0518847 0.0138517,0.0751522l-0.000123217 4.10724e-005c0.00381973,0.0119007 0.00693097,0.0241711 0.0083685,0.0368933 0.0116543,0.101521 -0.052891,0.188851 -0.143332,0.214686 1.02681e-005,4.10724e-005 4.10724e-005,7.18767e-005 5.13405e-005,0.000112949 -0.0832332,0.0232162 -0.14477,0.0989845 -0.145787,0.189744 -0.00125271,0.110136 0.0870324,0.200433 0.197168,0.201686 0.110136,0.00125271 0.200444,-0.0870222 0.201696,-0.197168 0.000266971,-0.0238117 -0.00388134,-0.0465967 -0.0112846,-0.0678722 5.13405e-005,-4.10724e-005 0.000123217,-8.21448e-005 0.000195094,-0.000123217 -0.00500057,-0.0139338 -0.00861494,-0.0283708 -0.0103605,-0.0434751 -0.0116748,-0.102034 0.0536098,-0.190566 0.14478,-0.215887l-2.05362e-005 -6.16086e-005c0.0821551,-0.0239041 0.142614,-0.099231 0.14364,-0.1892l0 0z"/>
    </g>
 </g>
</svg>
