<svg xmlns="http://www.w3.org/2000/svg" viewBox="0.6 -0.3 1 1">
 <defs>
                <linearGradient id="lgrad" x1="0%" y1="50%" x2="100%" y2="50%" >
                    <stop offset="0%" style="stop-color:rgb(0,178,190);stop-opacity:1.00" />
                    <stop offset="20%" style="stop-color:rgb(0,188,212);stop-opacity:1.00" />
                    <stop offset="32%" style="stop-color:rgb(0,184,164);stop-opacity:1.00" />
                    <stop offset="68%" style="stop-color:rgb(21,188,129);stop-opacity:1.00" />
                    <stop offset="100%" style="stop-color:rgb(97,188,89);stop-opacity:1.00" />
                </linearGradient>
            </defs>
<path fill="url(#lgrad)" d="M1.49.359a.1.1 0 1 1-.2-.002.1.1 0 0 1 .2.002zM1.089.101a.1.1 0 1 0-.193.035.1.1 0 0 1-.068.126.1.1 0 1 0 .122.063.1.1 0 0 1 .067-.13.1.1 0 0 0 .072-.094zm.267 0a.1.1 0 1 0-.193.035.1.1 0 0 1-.068.126.1.1 0 1 0 .121.063.1.1 0 0 1 .067-.13.1.1 0 0 0 .072-.094z"/></svg>